/* XPM */
static char * wall4_xpm[] = {
"64 64 468 2",
"  	c #6A7246",
". 	c #364125",
"+ 	c #3F4A3A",
"@ 	c #536E37",
"# 	c #455831",
"$ 	c #4D5633",
"% 	c #4C4F38",
"& 	c #353C2F",
"* 	c #3B6624",
"= 	c #5C9B33",
"- 	c #719A4A",
"; 	c #444942",
"> 	c #47583C",
", 	c #39722E",
"' 	c #565B46",
") 	c #373D31",
"! 	c #2D311E",
"~ 	c #2E3620",
"{ 	c #404A35",
"] 	c #5B7649",
"^ 	c #638A4F",
"/ 	c #465E34",
"( 	c #34402D",
"_ 	c #5D7245",
": 	c #6D7B43",
"< 	c #4D5330",
"[ 	c #3C4624",
"} 	c #353D22",
"| 	c #546A31",
"1 	c #4B6A35",
"2 	c #687F4B",
"3 	c #435233",
"4 	c #7E8A4D",
"5 	c #4A572C",
"6 	c #31391C",
"7 	c #545932",
"8 	c #414435",
"9 	c #6B7C3E",
"0 	c #535F42",
"a 	c #3C482C",
"b 	c #436030",
"c 	c #385823",
"d 	c #476432",
"e 	c #5E7B48",
"f 	c #4F7138",
"g 	c #5C8F3A",
"h 	c #54663E",
"i 	c #4F5837",
"j 	c #282C1C",
"k 	c #374122",
"l 	c #5B6C41",
"m 	c #6D8C54",
"n 	c #728E51",
"o 	c #617544",
"p 	c #3B442D",
"q 	c #657249",
"r 	c #738047",
"s 	c #474E2F",
"t 	c #2D3719",
"u 	c #243213",
"v 	c #3D4037",
"w 	c #4B5B36",
"x 	c #606F48",
"y 	c #5B7137",
"z 	c #667143",
"A 	c #4C612D",
"B 	c #637927",
"C 	c #434A38",
"D 	c #282C27",
"E 	c #4B603B",
"F 	c #6D7E59",
"G 	c #435934",
"H 	c #5E8646",
"I 	c #688C4A",
"J 	c #425037",
"K 	c #335227",
"L 	c #345327",
"M 	c #3E643B",
"N 	c #434833",
"O 	c #495834",
"P 	c #474F2F",
"Q 	c #364225",
"R 	c #556A3C",
"S 	c #5A7644",
"T 	c #43563C",
"U 	c #627640",
"V 	c #6C7A35",
"W 	c #58623F",
"X 	c #6F784C",
"Y 	c #3B4526",
"Z 	c #343F1C",
"` 	c #374123",
" .	c #292A24",
"..	c #586649",
"+.	c #536741",
"@.	c #4E6A29",
"#.	c #6F7C47",
"$.	c #E8CA98",
"%.	c #3C3F2C",
"&.	c #47503A",
"*.	c #3D4131",
"=.	c #444C2E",
"-.	c #50613D",
";.	c #6A8458",
">.	c #547C41",
",.	c #456134",
"'.	c #5A7D43",
").	c #526E42",
"!.	c #293E1D",
"~.	c #1D3F19",
"{.	c #2F492C",
"].	c #4E5C32",
"^.	c #3D4F2A",
"/.	c #26291D",
"(.	c #25261C",
"_.	c #465536",
":.	c #4D6235",
"<.	c #404D32",
"[.	c #3D4929",
"}.	c #586533",
"|.	c #58623C",
"1.	c #545D3B",
"2.	c #4A5531",
"3.	c #37401E",
"4.	c #2D3229",
"5.	c #414937",
"6.	c #434834",
"7.	c #C7B180",
"8.	c #C7AF82",
"9.	c #3E432C",
"0.	c #F2D29E",
"a.	c #352F2D",
"b.	c #292E29",
"c.	c #484C3C",
"d.	c #414F37",
"e.	c #3B552C",
"f.	c #3B443A",
"g.	c #3F532F",
"h.	c #455D2F",
"i.	c #515C44",
"j.	c #324025",
"k.	c #374F26",
"l.	c #384731",
"m.	c #55612F",
"n.	c #252B1E",
"o.	c #23241F",
"p.	c #2B2F27",
"q.	c #3A4627",
"r.	c #4D633B",
"s.	c #536C36",
"t.	c #73893E",
"u.	c #4F5C36",
"v.	c #41452F",
"w.	c #434D2F",
"x.	c #666836",
"y.	c #444F26",
"z.	c #3B4923",
"A.	c #525D39",
"B.	c #D8A569",
"C.	c #455233",
"D.	c #32402D",
"E.	c #37482D",
"F.	c #495A3F",
"G.	c #424B39",
"H.	c #3E532C",
"I.	c #4A563F",
"J.	c #2D3A22",
"K.	c #4F5D3B",
"L.	c #556443",
"M.	c #698344",
"N.	c #272F1E",
"O.	c #2B2E22",
"P.	c #4F5A43",
"Q.	c #54633A",
"R.	c #3E3D32",
"S.	c #4F6B3E",
"T.	c #6C8645",
"U.	c #516037",
"V.	c #37462B",
"W.	c #333A22",
"X.	c #4B5337",
"Y.	c #3E492D",
"Z.	c #3F502F",
"`.	c #40493A",
" +	c #637347",
".+	c #445736",
"++	c #36482A",
"@+	c #3A542B",
"#+	c #35472A",
"$+	c #45613F",
"%+	c #2F3F28",
"&+	c #698C4F",
"*+	c #618340",
"=+	c #53663A",
"-+	c #464B3A",
";+	c #464C34",
">+	c #515A3A",
",+	c #596C39",
"'+	c #4D653A",
")+	c #566C3D",
"!+	c #50613B",
"~+	c #1B1E10",
"{+	c #23281A",
"]+	c #313B24",
"^+	c #313F1C",
"/+	c #B8774D",
"(+	c #566344",
"_+	c #485D33",
":+	c #4A6E35",
"<+	c #65794A",
"[+	c #628753",
"}+	c #4A6641",
"|+	c #434B32",
"1+	c #49512B",
"2+	c #3C442B",
"3+	c #47543D",
"4+	c #43503B",
"5+	c #494D3F",
"6+	c #5E7446",
"7+	c #496237",
"8+	c #415130",
"9+	c #363B2A",
"0+	c #282C22",
"a+	c #1C2212",
"b+	c #3A3E29",
"c+	c #343826",
"d+	c #557139",
"e+	c #57763F",
"f+	c #546F3C",
"g+	c #415731",
"h+	c #576B41",
"i+	c #3E4233",
"j+	c #323323",
"k+	c #425128",
"l+	c #262D22",
"m+	c #46503E",
"n+	c #4D5F36",
"o+	c #5D7444",
"p+	c #487132",
"q+	c #424F2B",
"r+	c #403C2B",
"s+	c #1E2317",
"t+	c #12180B",
"u+	c #2E3320",
"v+	c #536D3D",
"w+	c #5F7449",
"x+	c #4D6136",
"y+	c #4A6134",
"z+	c #5A7834",
"A+	c #394A29",
"B+	c #3C4B25",
"C+	c #465032",
"D+	c #424F27",
"E+	c #393C2C",
"F+	c #50563D",
"G+	c #425936",
"H+	c #2F5A24",
"I+	c #548643",
"J+	c #3B4934",
"K+	c #0F170B",
"L+	c #1E2514",
"M+	c #5C6E45",
"N+	c #5E7941",
"O+	c #5B753B",
"P+	c #486036",
"Q+	c #60744C",
"R+	c #536C37",
"S+	c #42542C",
"T+	c #495B30",
"U+	c #4C5635",
"V+	c #2B3121",
"W+	c #33372C",
"X+	c #535C2E",
"Y+	c #2E4326",
"Z+	c #242D1D",
"`+	c #425F36",
" @	c #1D2717",
".@	c #11160B",
"+@	c #2E3D1C",
"@@	c #5D793D",
"#@	c #70453F",
"$@	c #344626",
"%@	c #446131",
"&@	c #3F5031",
"*@	c #769055",
"=@	c #506F3A",
"-@	c #333F26",
";@	c #3D4231",
">@	c #3F4734",
",@	c #596A43",
"'@	c #404F2C",
")@	c #485731",
"!@	c #495231",
"~@	c #3A472D",
"{@	c #4C6E42",
"]@	c #223C1D",
"^@	c #12170A",
"/@	c #526934",
"(@	c #516B3D",
"_@	c #35442C",
":@	c #4F733C",
"<@	c #414F39",
"[@	c #56653F",
"}@	c #495B41",
"|@	c #567444",
"1@	c #5A6A49",
"2@	c #465236",
"3@	c #5D7149",
"4@	c #4D5D34",
"5@	c #779140",
"6@	c #51682E",
"7@	c #536649",
"8@	c #677D54",
"9@	c #567046",
"0@	c #404B31",
"a@	c #465B31",
"b@	c #364425",
"c@	c #5B7133",
"d@	c #495A2D",
"e@	c #2B3724",
"f@	c #49573C",
"g@	c #729052",
"h@	c #49563B",
"i@	c #3F4731",
"j@	c #3B3E32",
"k@	c #3F4730",
"l@	c #4C593B",
"m@	c #555F3F",
"n@	c #515837",
"o@	c #3E4336",
"p@	c #565D4C",
"q@	c #3F4736",
"r@	c #555F46",
"s@	c #556937",
"t@	c #353E2E",
"u@	c #314128",
"v@	c #37452F",
"w@	c #5E7549",
"x@	c #7A8A59",
"y@	c #4C5C31",
"z@	c #1F2619",
"A@	c #444E33",
"B@	c #313B2B",
"C@	c #495139",
"D@	c #798453",
"E@	c #6A774D",
"F@	c #4D673C",
"G@	c #546543",
"H@	c #2C3625",
"I@	c #2C3428",
"J@	c #485938",
"K@	c #526A39",
"L@	c #495F33",
"M@	c #2C3C22",
"N@	c #2E3725",
"O@	c #475B38",
"P@	c #79935E",
"Q@	c #4F603E",
"R@	c #1C2215",
"S@	c #566B32",
"T@	c #334B23",
"U@	c #636B42",
"V@	c #66734E",
"W@	c #7A924C",
"X@	c #496535",
"Y@	c #4E5E2C",
"Z@	c #3D472F",
"`@	c #343D2D",
" #	c #3A5230",
".#	c #515546",
"+#	c #4A5C40",
"@#	c #3C4B32",
"##	c #293223",
"$#	c #293325",
"%#	c #3B522C",
"&#	c #577345",
"*#	c #5D6B3B",
"=#	c #425129",
"-#	c #364624",
";#	c #4C5332",
">#	c #3E5F31",
",#	c #708C48",
"'#	c #606E3F",
")#	c #59673A",
"!#	c #5D6B43",
"~#	c #30352B",
"{#	c #455936",
"]#	c #353C2B",
"^#	c #677448",
"/#	c #454F35",
"(#	c #3F4835",
"_#	c #4B5643",
":#	c #3B5631",
"<#	c #424B33",
"[#	c #292F21",
"}#	c #3D4734",
"|#	c #3F4932",
"1#	c #495931",
"2#	c #587837",
"3#	c #414D33",
"4#	c #404E32",
"5#	c #38452E",
"6#	c #566948",
"7#	c #486E35",
"8#	c #3F6231",
"9#	c #5B7143",
"0#	c #527041",
"a#	c #5C6E42",
"b#	c #373628",
"c#	c #64593D",
"d#	c #586245",
"e#	c #4E5C3B",
"f#	c #323A2A",
"g#	c #3C482D",
"h#	c #3F472B",
"i#	c #555D3A",
"j#	c #424932",
"k#	c #252821",
"l#	c #46583B",
"m#	c #455C35",
"n#	c #49523D",
"o#	c #415833",
"p#	c #59744A",
"q#	c #678657",
"r#	c #466D2D",
"s#	c #41562F",
"t#	c #546B45",
"u#	c #4F6845",
"v#	c #35332B",
"w#	c #343D24",
"x#	c #2A3025",
"y#	c #4E4331",
"z#	c #494E36",
"A#	c #4F6738",
"B#	c #364329",
"C#	c #22281D",
"D#	c #2B3229",
"E#	c #667549",
"F#	c #677851",
"G#	c #404832",
"H#	c #32382C",
"I#	c #5A734B",
"J#	c #577C4E",
"K#	c #3D6235",
"L#	c #445D3A",
"M#	c #657C4A",
"N#	c #37412B",
"O#	c #33372E",
"P#	c #2C3824",
"Q#	c #47593C",
"R#	c #3A482E",
"S#	c #4A5333",
"T#	c #434A37",
"U#	c #353829",
"V#	c #3F4230",
"W#	c #3C3D32",
"X#	c #3C4231",
"Y#	c #4E5D38",
"Z#	c #3E5638",
"`#	c #344124",
" $	c #2D3922",
".$	c #6A7A40",
"+$	c #5D6F3A",
"@$	c #516142",
"#$	c #517539",
"$$	c #4D613C",
"%$	c #435335",
"&$	c #53653A",
"  . + @ # $ % & * = - ; > , ' ) ! ~ { ] ^ / ( _ : < [ } | 1 2 3   . + @ # $ % & * = - ; > , ' ) ! ~ { ] ^ / ( _ : < [ } | 1 2 3 ",
"4 5 6 7 8 9 0 a b c d e f g h i j k l m n o p q r s t u v w x y 4 5 6 7 8 9 0 a b c d e f g h i j k l m n o p q r s t u v w x y ",
"z A B C D E F G H I J K L M N O P Q R S T U V W X Y Z `  ...+.@.#.A B C D E F G H I J K L M N O P Q R S T U V W X Y Z `  ...+.@.",
"$.%.&.*.=.-.;.>.,.'.).!.~.{.].^./.(._.:.<.[.}.|.1.2.3.~ 4.5.6.7.8.9.&.*.=.-.;.>.,.'.).!.~.{.].^./.(._.:.<.[.}.|.1.2.3.~ 4.5.6.7.",
"0.0.a.b.c.d.e.f.g.h.i.j.k.l.m.n.o.p.q.r.s.t.u.v.w.x.y.z.A.a.B.B.0.0.a.b.c.d.e.f.g.h.i.j.k.l.m.n.o.p.q.r.s.t.u.v.w.x.y.z.A.a.B.B.",
"B.B.0.a.C.D.E.F.G.H.I.J.K.L.M.N.O.P.Q.R.S.T.U.V.W.X.Y.Z.a.0.B.0.B.B.0.a.C.D.E.F.G.H.I.J.K.L.M.N.O.P.Q.R.S.T.U.V.W.X.Y.Z.a.0.B.0.",
"B.B.B.B.a.`. +.+++@+#+$+%+&+*+=+-+;+>+,+'+)+!+~+{+]+^+a.B.0.B.0.B.B.B.B.a.`. +.+++@+#+$+%+&+*+=+-+;+>+,+'+)+!+~+{+]+^+a.B.0.B.0.",
"B./+B./+B.a.(+_+:+<+[+}+|+1+2+3+4+5+6+7+8+9+0+a+b+c+a.B.0.B.B.0.B./+B./+B.a.(+_+:+<+[+}+|+1+2+3+4+5+6+7+8+9+0+a+b+c+a.B.0.B.B.0.",
"0.B.B.B./+B.a.d+e+f+g+h+i+j+k+l+m+n+o+p+q+r+s+t+u+a.B.0./+B.B.0.0.B.B.B./+B.a.d+e+f+g+h+i+j+k+l+m+n+o+p+q+r+s+t+u+a.B.0./+B.B.0.",
"0.B./+B./+B.a.v+w+x+y+z+A+B+C+D+E+F+G+H+I+J+K+L+M+a./+/+B.B.0.0.0.B./+B./+B.a.v+w+x+y+z+A+B+C+D+E+F+G+H+I+J+K+L+M+a./+/+B.B.0.0.",
"0.B./+B.B.a.a.N+O+P+Q+R+S+T+U+V+W+X+Y+Z+`+ @.@+@@@a.B./+B.B.0.0.0.B./+B.B.a.a.N+O+P+Q+R+S+T+U+V+W+X+Y+Z+`+ @.@+@@@a.B./+B.B.0.0.",
"0.B.B./+a.#@a.$@%@&@*@=@-@;@>@,@'@)@!@~@{@]@^@/@(@a.a.a.a./+0.0.0.B.B./+a.#@a.$@%@&@*@=@-@;@>@,@'@)@!@~@{@]@^@/@(@a.a.a.a./+0.0.",
"/+a.a.a.a.#@a._@:@<@[@}@|@1@2@3@4@5@6@7@8@9@0@a@b@a.a.#@a.a.a./+/+a.a.a.a.#@a._@:@<@[@}@|@1@2@3@4@5@6@7@8@9@0@a@b@a.a.#@a.a.a./+",
"#@#@a./+/+a.a.a.a.a.a.a.a.a.a.a.a.a.a.a.a.a.a.a.a.a.a.#@#@a.#@#@#@#@a./+/+a.a.a.a.a.a.a.a.a.a.a.a.a.a.a.a.a.a.a.a.a.a.#@#@a.#@#@",
"a.#@a./+/+a.B.B.0.0.B.B.0.0.0.B.B.B.B.0.0.B.B.0.B.0.a./+/+a.#@a.a.#@a./+/+a.B.B.0.0.B.B.0.0.0.B.B.B.B.0.0.B.B.0.B.0.a./+/+a.#@a.",
"0.a.a./+/+a.#@#@#@#@/+/+/+#@#@#@#@#@#@#@#@#@#@#@#@#@a./+/+#@a.0.0.a.a./+/+a.#@#@#@#@/+/+/+#@#@#@#@#@#@#@#@#@#@#@#@#@a./+/+#@a.0.",
"0.a.a./+/+a./+/+/+/+#@#@#@/+/+#@#@/+/+#@#@/+/+/+/+/+a.#@B.#@a.0.0.a.a./+/+a./+/+/+/+#@#@#@/+/+#@#@/+/+#@#@/+/+/+/+/+a.#@B.#@a.0.",
"0.a./+/+#@a.a.a.a.a.#@#@#@#@#@#@#@#@#@/+/+#@#@a.a.a.a.a.B.#@a.B.0.a./+/+#@/+a.a.a.a.#@#@#@#@#@#@#@#@#@/+/+#@#@a.a.a.a.a.B.#@a.B.",
"0.a.B./+#@/+a.a.a.a.a.a.a.a.a.a.a.a.a.a.a.a.a.a.a.a./+a.B.#@a.B.0.a.B./+#@/+a.a.a.a.a.a.a.a.a.a.a.a.a.a.a.a.a.a.a.a./+a.B.#@a.B.",
"0.a.B./+#@/+a.c@d@e@f@g@h@i@j@k@l@m@n@o@p@q@r@s@r.a./+#@B.B.a.B.0.a.B./+#@/+a.c@d@e@f@g@h@i@j@k@l@m@n@o@p@q@r@s@r.a./+#@B.B.a.B.",
"0.a./+B.#@#@a.t@u@v@w@x@y@z@A@B@C@D@E@F@G@H@I@J@K@a./+a.a./+a.B.0.a./+B.#@#@a.t@u@v@w@x@y@z@A@B@C@D@E@F@G@H@I@J@K@a./+a.a./+a.B.",
"B.a./+B.#@#@a.L@M@N@O@P@Q@R@S@T@U@V@W@X@Y@Z@`@ #.#a./+a.#@/+a.B.B.a./+B.#@#@a.L@M@N@O@P@Q@R@S@T@U@V@W@X@Y@Z@`@ #.#a./+a.#@/+a.B.",
"B.a./+B.#@#@a.+#@###$#%#&#*#=#-#;#>#,#'#)#!#~#{#]#a.#@a.#@/+a.B.B.a./+B.#@#@a.+#@###$#%#&#*#=#-#;#>#,#'#)#!#~#{#]#a.#@a.#@/+a.B.",
"B.a./+B.a.a.a.a.a.a.a.a.a.a.a.a.a.a.a.a.a.a.a.a.a.a.#@a.#@#@a.0.B.a./+B.a.#@a.a.a.a.a.a.a.a.a.a.a.a.a.a.a.a.a.a.a.a.#@a.#@#@a.0.",
"B.a./+B.a.a.B.B.0.0.0.B.B.B.B.B.B.B.B.B.0.B.B.0.B.B.a.a.#@#@a.0.B.a./+B.a.a.B.B.0.0.0.B.B.B.B.B.B.B.B.B.0.B.B.0.B.B.a.a.#@#@a.0.",
"B.a./+#@a.#@#@#@#@#@#@#@#@/+/+#@#@#@#@#@#@/+/+/+/+/+a.#@a.#@a.0.B.a./+#@a.#@#@#@#@#@#@#@#@/+/+#@#@#@#@#@#@/+/+/+/+/+a.#@a.#@a.0.",
"B.a.#@#@a./+/+/+/+/+/+/+/+#@#@#@#@/+/+/+/+/+#@#@#@#@a.#@a.#@a.0.B.a.#@#@a./+/+/+/+/+/+/+/+#@#@#@#@/+/+/+/+/+#@#@#@#@a.#@a.#@a.0.",
"0.a.#@a.a.a.a.a.a.#@#@#@#@#@#@#@#@#@#@#@#@#@#@a.a.a.a.a.a.#@a.B.0.a.#@a.a.a.a.a.a.#@#@#@#@#@#@#@#@#@#@#@#@#@#@a.a.a.a.a.a.#@a.B.",
"0.a.#@a.#@a.a.a.a.a.a.a.a.a.a.a.a.a.a.a.a.a.a.a.a.a.a.a.a.#@a.B.0.a.#@a.#@a.a.a.a.a.a.a.a.a.a.a.a.a.a.a.a.a.a.a.a.a.a.a.a.#@a.B.",
"0.a.#@a.#@a.^#/#(#_#:#<#[#}#|#1#2#3#4#5#6#7#8#9#0#a#a.a.a.#@a./+0.a.#@a.#@a.^#/#(#_#:#<#[#}#|#1#2#3#4#5#6#7#8#9#0#a#a.a.a.#@a./+",
"B.a.a.a.a.a.b#c#d#e#f#g#h#i#j#k#l#m#n#o#p#q#r#s#t#u#a.a.a.a.a./+B.a.a.a.a.a.b#c#d#e#f#g#h#i#j#k#l#m#n#o#p#q#r#s#t#u#a.a.a.a.a./+",
"B.a.a.v#a.w#x#y#z#A#B#C#D#E#F#G#H#I#J#K#L#M#N#O#P#Q#R#a.S#T#a./+B.a.a.U#a.w#x#y#z#A#B#C#D#E#F#G#H#I#J#K#L#M#N#O#P#Q#R#a.V#W#a./+",
"/+a.+ @ # $ % & * = - ; > , ' ) ! ~ { ] ^ / ( _ : < [ } | 1 a./+/+a.+ @ # $ % & * = - ; > , ' ) ! ~ { ] ^ / ( _ : < [ } | 1 a./+",
"/+a.6 7 8 9 0 a b c d e f g h i j k l m n o p q r s t u v w a./+/+a.6 7 8 9 0 a b c d e f g h i j k l m n o p q r s t u v w a./+",
"a.a.B C D E F G H I J K L M N O P Q R S T U V W X Y Z `  ...a.a.a.a.B C D E F G H I J K L M N O P Q R S T U V W X Y Z `  ...a.a.",
"0.a.&.*.=.-.;.>.,.'.).!.~.{.].^./.(._.:.<.[.}.|.1.2.3.~ 4.5.a.0.0.a.&.*.=.-.;.>.,.'.).!.~.{.].^./.(._.:.<.[.}.|.1.2.3.~ 4.5.a.0.",
"0.0.a.b.c.d.e.f.g.h.i.j.k.l.m.n.o.p.q.r.s.t.u.v.w.x.y.z.A.a.B.B.0.0.a.b.c.d.e.f.g.h.i.j.k.l.m.n.o.p.q.r.s.t.u.v.w.x.y.z.A.a.B.B.",
"B.B.0.a.C.D.E.F.G.H.I.J.K.L.M.N.O.P.Q.R.S.T.U.V.W.X.Y.Z.a.0.B.0.B.B.0.a.C.D.E.F.G.H.I.J.K.L.M.N.O.P.Q.R.S.T.U.V.W.X.Y.Z.a.0.B.0.",
"B.B.B.B.a.`. +.+++@+#+$+%+&+*+=+-+;+>+,+'+)+!+~+{+]+^+a.B.0.B.0.B.B.B.B.a.`. +.+++@+#+$+%+&+*+=+-+;+>+,+'+)+!+~+{+]+^+a.B.0.B.0.",
"B./+B./+B.a.(+_+:+<+[+}+|+1+2+3+4+5+6+7+8+9+0+a+b+c+a.B.0.B.B.0.B./+B./+B.a.(+_+:+<+[+}+|+1+2+3+4+5+6+7+8+9+0+a+b+c+a.B.0.B.B.0.",
"0.B.B.B./+B.a.d+e+f+g+h+i+j+k+l+m+n+o+p+q+r+s+t+u+a.B.0./+B.B.0.0.B.B.B./+B.a.d+e+f+g+h+i+j+k+l+m+n+o+p+q+r+s+t+u+a.B.0./+B.B.0.",
"0.B./+B./+B.a.v+w+x+y+z+A+B+C+D+E+F+G+H+I+J+K+L+M+a./+/+B.B.0.0.0.B./+B./+B.a.v+w+x+y+z+A+B+C+D+E+F+G+H+I+J+K+L+M+a./+/+B.B.0.0.",
"0.B./+B.B.a.a.N+O+P+Q+R+S+T+U+V+W+X+Y+Z+`+ @.@+@@@a.B./+B.B.0.0.0.B./+B.B.a.a.N+O+P+Q+R+S+T+U+V+W+X+Y+Z+`+ @.@+@@@a.B./+B.B.0.0.",
"0.B.B./+a.#@a.$@%@&@*@=@-@;@>@,@'@)@!@~@{@]@^@/@(@a.a.a.a./+0.0.0.B.B./+a.#@a.$@%@&@*@=@-@;@>@,@'@)@!@~@{@]@^@/@(@a.a.a.a./+0.0.",
"a.a.a.a.a.#@a._@:@<@[@}@|@1@2@3@4@5@6@7@8@9@0@a@b@a.a.#@a.a.a./+a.a.a.a.a.#@a._@:@<@[@}@|@1@2@3@4@5@6@7@8@9@0@a@b@a.a.#@a.a.a./+",
"/+a.a./+/+a.a.a.a.a.a.a.a.a.a.a.a.a.a.a.a.a.a.a.a.a.a.#@#@a.#@/+/+a.a./+/+a.a.a.a.a.a.a.a.a.a.a.a.a.a.a.a.a.a.a.a.a.a.#@#@a.#@/+",
"/+a.a./+/+a.B.B.0.0.B.B.0.0.0.B.B.B.B.0.0.B.B.0.B.0.a./+/+a./+/+/+a.a./+/+a.B.B.0.0.B.B.0.0.0.B.B.B.B.0.0.B.B.0.B.0.a./+/+a./+/+",
"#@/+a./+/+a.#@#@#@#@/+/+/+#@#@#@#@#@#@#@#@#@#@#@#@#@a./+/+#@B.#@#@/+a./+/+a.#@#@#@#@/+/+/+#@#@#@#@#@#@#@#@#@#@#@#@#@a./+/+#@B.#@",
"#@/+a./+/+a./+/+/+/+#@#@#@/+/+#@#@/+/+#@#@/+/+/+/+/+a.#@B.#@B.a.#@/+a./+/+a./+/+/+/+#@#@#@/+/+#@#@/+/+#@#@/+/+/+/+/+a.#@B.#@B.a.",
"#@/+/+/+#@a.a.a.a.a.#@#@#@#@#@#@#@#@#@/+/+#@#@a.a.a.a.a.B.#@B.#@#@/+/+/+#@/+a.a.a.a.#@#@#@#@#@#@#@#@#@/+/+#@#@a.a.a.a.a.B.#@B.#@",
"#@/+B./+#@/+a.a.a.a.a.a.a.a.a.a.a.a.a.a.a.a.a.a.a.a./+a.B.#@B.a.#@/+B./+#@/+a.a.a.a.a.a.a.a.a.a.a.a.a.a.a.a.a.a.a.a./+a.B.#@B.a.",
"#@/+B./+#@/+a.c@d@e@f@g@h@i@j@k@l@m@n@o@p@q@r@s@r.a./+#@B.B.B.a.#@/+B./+#@/+a.c@d@e@f@g@h@i@j@k@l@m@n@o@p@q@r@s@r.a./+#@B.B.B.a.",
"a./+/+B.#@#@a.t@u@v@w@x@y@z@A@B@C@D@E@F@G@H@I@J@K@a./+a.a./+/+a.a./+/+B.#@#@a.t@u@v@w@x@y@z@A@B@C@D@E@F@G@H@I@J@K@a./+a.a./+/+a.",
"a.#@/+B.#@#@a.L@M@N@O@P@Q@R@S@T@U@V@W@X@Y@Z@`@ #.#a./+a.#@/+B.#@a.#@/+B.#@#@a.L@M@N@O@P@Q@R@S@T@U@V@W@X@Y@Z@`@ #.#a./+a.#@/+B.#@",
"a.#@/+B.#@#@a.+#@###$#%#&#*#=#-#;#>#,#'#)#!#~#{#]#a.#@a.#@/+B./+a.#@/+B.#@#@a.+#@###$#%#&#*#=#-#;#>#,#'#)#!#~#{#]#a.#@a.#@/+B./+",
"a.#@/+B.a.a.a.a.a.a.a.a.a.a.a.a.a.a.a.a.a.a.a.a.a.a.#@a.#@#@B.B.a.#@/+B.a.#@a.a.a.a.a.a.a.a.a.a.a.a.a.a.a.a.a.a.a.a.a.a.#@#@B.B.",
"a.#@/+B.a.a.B.B.0.0.0.B.B.B.B.B.B.B.B.B.0.B.B.0.B.B.a.a.#@#@/+B.a.#@/+B.a.a.B.B.0.0.0.B.B.B.B.B.B.B.B.B.0.B.B.0.B.B.a.a.#@#@/+B.",
"a.a./+#@a.#@#@#@#@#@#@#@#@/+/+#@#@#@#@#@#@/+/+/+/+/+a.#@a.#@/+B.a.a./+#@a.#@#@#@#@#@#@#@#@/+/+#@#@#@#@#@#@/+/+/+/+/+a.#@a.#@/+B.",
"a.a.#@#@a./+/+/+/+/+/+/+/+#@#@#@#@/+/+/+/+/+#@#@#@#@a.#@a.#@/+#@a.a.#@#@a./+/+/+/+/+/+/+/+#@#@#@#@/+/+/+/+/+#@#@#@#@a.#@a.#@/+/+",
"a.a.#@a.a.a.a.a.a.#@#@#@#@#@#@#@#@#@#@#@#@#@#@a.a.a.a.a.a.#@#@#@#@a.#@a.a.a.a.a.a.#@#@#@#@#@#@#@#@#@#@#@#@#@#@a.a.a.a.a.a.#@/+/+",
"a.a.#@a.#@a.a.a.a.a.a.a.a.a.a.a.a.a.a.a.a.a.a.a.a.a.a.a.a.#@#@#@#@a.#@a.#@a.a.a.a.a.a.a.a.a.a.a.a.a.a.a.a.a.a.a.a.a.a.a.a.#@/+#@",
"a.a.#@a.#@a.^#/#(#_#:#<#[#}#|#1#2#3#4#5#6#7#8#9#0#a#a.a.a.#@#@#@a.a.#@a.#@a.^#/#(#_#:#<#[#}#|#1#2#3#4#5#6#7#8#9#0#a#a.a.a.#@#@#@",
"a.a.a.a.a.a.b#c#d#e#f#g#h#i#j#k#l#m#n#o#p#q#r#s#t#u#a.a.a.a.#@a.a.a.a.a.a.a.b#c#d#e#f#g#h#i#j#k#l#m#n#o#p#q#r#s#t#u#a.a.a.a.#@a.",
"X#Y#Z#`# $w#x#y#z#A#B#C#D#E#F#G#H#I#J#K#L#M#N#O#P#Q#R#.$+$@$#$$$%$&$Z#`# $w#x#y#z#A#B#C#D#E#F#G#H#I#J#K#L#M#N#O#P#Q#R#.$+$@$#$$$"};
